<svg xmlns="http://www.w3.org/2000/svg" version="1.1" xmlns:xlink="http://www.w3.org/1999/xlink" xmlns:svgjs="http://svgjs.com/svgjs" width="1440" height="560" preserveAspectRatio="none" viewBox="0 0 1440 560"><g mask="url(&quot;#SvgjsMask1002&quot;)" fill="none"><path d="M-46.08 495.47L-46.08 495.47" stroke="#132e65" stroke-width="1.5"></path><path d="M-46.08 495.47L-95.54 637.76" stroke="#132e65" stroke-width="1.5"></path><path d="M-46.08 495.47L96.7 377.19" stroke="#132e65" stroke-width="1.5"></path><path d="M-46.08 495.47L94.18 658.58" stroke="#132e65" stroke-width="1.5"></path><path d="M-46.08 495.47L196.05 672.51" stroke="#132e65" stroke-width="1.5"></path><path d="M-46.08 495.47L257.27 515.72" stroke="#132e65" stroke-width="1.5"></path><path d="M-46.08 495.47L252.21 361.54" stroke="#132e65" stroke-width="1.5"></path><path d="M-95.54 637.76L-95.54 637.76" stroke="#132e65" stroke-width="1.5"></path><path d="M-95.54 637.76L94.18 658.58" stroke="#132e65" stroke-width="1.5"></path><path d="M96.7 377.19L96.7 377.19" stroke="#132e65" stroke-width="1.5"></path><path d="M96.7 377.19L252.21 361.54" stroke="#132e65" stroke-width="1.5"></path><path d="M94.18 658.58L94.18 658.58" stroke="#132e65" stroke-width="1.5"></path><path d="M94.18 658.58L196.05 672.51" stroke="#132e65" stroke-width="1.5"></path><path d="M94.18 658.58L257.27 515.72" stroke="#132e65" stroke-width="1.5"></path><path d="M94.18 658.58L359.03 675.75" stroke="#132e65" stroke-width="1.5"></path><path d="M252.21 361.54L252.21 361.54" stroke="#132e65" stroke-width="1.5"></path><path d="M252.21 361.54L384.03 366.55" stroke="#132e65" stroke-width="1.5"></path><path d="M252.21 361.54L257.27 515.72" stroke="#132e65" stroke-width="1.5"></path><path d="M257.27 515.72L257.27 515.72" stroke="#132e65" stroke-width="1.5"></path><path d="M257.27 515.72L366.45 547.59" stroke="#132e65" stroke-width="1.5"></path><path d="M257.27 515.72L196.05 672.51" stroke="#132e65" stroke-width="1.5"></path><path d="M196.05 672.51L196.05 672.51" stroke="#132e65" stroke-width="1.5"></path><path d="M196.05 672.51L359.03 675.75" stroke="#132e65" stroke-width="1.5"></path><path d="M384.03 366.55L384.03 366.55" stroke="#132e65" stroke-width="1.5"></path><path d="M384.03 366.55L505.05 397.35" stroke="#132e65" stroke-width="1.5"></path><path d="M384.03 366.55L366.45 547.59" stroke="#132e65" stroke-width="1.5"></path><path d="M384.03 366.55L257.27 515.72" stroke="#132e65" stroke-width="1.5"></path><path d="M384.03 366.55L558.83 538.48" stroke="#132e65" stroke-width="1.5"></path><path d="M384.03 366.55L96.7 377.19" stroke="#132e65" stroke-width="1.5"></path><path d="M366.45 547.59L366.45 547.59" stroke="#132e65" stroke-width="1.5"></path><path d="M366.45 547.59L359.03 675.75" stroke="#132e65" stroke-width="1.5"></path><path d="M366.45 547.59L512.02 655.35" stroke="#132e65" stroke-width="1.5"></path><path d="M366.45 547.59L558.83 538.48" stroke="#132e65" stroke-width="1.5"></path><path d="M359.03 675.75L359.03 675.75" stroke="#132e65" stroke-width="1.5"></path><path d="M359.03 675.75L512.02 655.35" stroke="#132e65" stroke-width="1.5"></path><path d="M359.03 675.75L257.27 515.72" stroke="#132e65" stroke-width="1.5"></path><path d="M505.05 397.35L505.05 397.35" stroke="#132e65" stroke-width="1.5"></path><path d="M505.05 397.35L558.83 538.48" stroke="#132e65" stroke-width="1.5"></path><path d="M505.05 397.35L366.45 547.59" stroke="#132e65" stroke-width="1.5"></path><path d="M505.05 397.35L252.21 361.54" stroke="#132e65" stroke-width="1.5"></path><path d="M505.05 397.35L512.02 655.35" stroke="#132e65" stroke-width="1.5"></path><path d="M558.83 538.48L558.83 538.48" stroke="#132e65" stroke-width="1.5"></path><path d="M558.83 538.48L512.02 655.35" stroke="#132e65" stroke-width="1.5"></path><path d="M558.83 538.48L648.41 682.44" stroke="#132e65" stroke-width="1.5"></path><path d="M558.83 538.48L359.03 675.75" stroke="#132e65" stroke-width="1.5"></path><path d="M512.02 655.35L512.02 655.35" stroke="#132e65" stroke-width="1.5"></path><path d="M512.02 655.35L648.41 682.44" stroke="#132e65" stroke-width="1.5"></path><path d="M648.41 682.44L648.41 682.44" stroke="#132e65" stroke-width="1.5"></path><path d="M648.41 682.44L860.25 650.15" stroke="#132e65" stroke-width="1.5"></path><path d="M648.41 682.44L359.03 675.75" stroke="#132e65" stroke-width="1.5"></path><path d="M824.51 383.16L824.51 383.16" stroke="#132e65" stroke-width="1.5"></path><path d="M824.51 383.16L1001.69 363.6" stroke="#132e65" stroke-width="1.5"></path><path d="M860.25 650.15L860.25 650.15" stroke="#132e65" stroke-width="1.5"></path><path d="M860.25 650.15L981.28 674.38" stroke="#132e65" stroke-width="1.5"></path><path d="M860.25 650.15L996.72 510.18" stroke="#132e65" stroke-width="1.5"></path><path d="M860.25 650.15L824.51 383.16" stroke="#132e65" stroke-width="1.5"></path><path d="M860.25 650.15L1132.74 642.52" stroke="#132e65" stroke-width="1.5"></path><path d="M996.07 -109.37L996.07 -109.37" stroke="#132e65" stroke-width="1.5"></path><path d="M996.07 -109.37L1159.37 -97.99" stroke="#132e65" stroke-width="1.5"></path><path d="M996.07 -109.37L943.46 56.24" stroke="#132e65" stroke-width="1.5"></path><path d="M996.07 -109.37L1244.68 -46.88" stroke="#132e65" stroke-width="1.5"></path><path d="M996.07 -109.37L1261.05 43.99" stroke="#132e65" stroke-width="1.5"></path><path d="M943.46 56.24L943.46 56.24" stroke="#132e65" stroke-width="1.5"></path><path d="M943.46 56.24L1089.83 249.8" stroke="#132e65" stroke-width="1.5"></path><path d="M1001.69 363.6L1001.69 363.6" stroke="#132e65" stroke-width="1.5"></path><path d="M1001.69 363.6L1092.14 356.91" stroke="#132e65" stroke-width="1.5"></path><path d="M1001.69 363.6L1089.83 249.8" stroke="#132e65" stroke-width="1.5"></path><path d="M1001.69 363.6L996.72 510.18" stroke="#132e65" stroke-width="1.5"></path><path d="M996.72 510.18L996.72 510.18" stroke="#132e65" stroke-width="1.5"></path><path d="M996.72 510.18L1153.61 522.42" stroke="#132e65" stroke-width="1.5"></path><path d="M981.28 674.38L981.28 674.38" stroke="#132e65" stroke-width="1.5"></path><path d="M981.28 674.38L1132.74 642.52" stroke="#132e65" stroke-width="1.5"></path><path d="M981.28 674.38L996.72 510.18" stroke="#132e65" stroke-width="1.5"></path><path d="M981.28 674.38L1153.61 522.42" stroke="#132e65" stroke-width="1.5"></path><path d="M981.28 674.38L1250.36 693.74" stroke="#132e65" stroke-width="1.5"></path><path d="M981.28 674.38L1001.69 363.6" stroke="#132e65" stroke-width="1.5"></path><path d="M1159.37 -97.99L1159.37 -97.99" stroke="#132e65" stroke-width="1.5"></path><path d="M1159.37 -97.99L1244.68 -46.88" stroke="#132e65" stroke-width="1.5"></path><path d="M1159.37 -97.99L1261.05 43.99" stroke="#132e65" stroke-width="1.5"></path><path d="M1159.37 -97.99L1388.13 -82.89" stroke="#132e65" stroke-width="1.5"></path><path d="M1159.37 -97.99L943.46 56.24" stroke="#132e65" stroke-width="1.5"></path><path d="M1089.83 249.8L1089.83 249.8" stroke="#132e65" stroke-width="1.5"></path><path d="M1089.83 249.8L1092.14 356.91" stroke="#132e65" stroke-width="1.5"></path><path d="M1089.83 249.8L1257.95 200.83" stroke="#132e65" stroke-width="1.5"></path><path d="M1089.83 249.8L1309.78 349.5" stroke="#132e65" stroke-width="1.5"></path><path d="M1089.83 249.8L1261.05 43.99" stroke="#132e65" stroke-width="1.5"></path><path d="M1092.14 356.91L1092.14 356.91" stroke="#132e65" stroke-width="1.5"></path><path d="M1092.14 356.91L1153.61 522.42" stroke="#132e65" stroke-width="1.5"></path><path d="M1153.61 522.42L1153.61 522.42" stroke="#132e65" stroke-width="1.5"></path><path d="M1153.61 522.42L1132.74 642.52" stroke="#132e65" stroke-width="1.5"></path><path d="M1132.74 642.52L1132.74 642.52" stroke="#132e65" stroke-width="1.5"></path><path d="M1132.74 642.52L1250.36 693.74" stroke="#132e65" stroke-width="1.5"></path><path d="M1132.74 642.52L996.72 510.18" stroke="#132e65" stroke-width="1.5"></path><path d="M1132.74 642.52L1304.63 493.62" stroke="#132e65" stroke-width="1.5"></path><path d="M1244.68 -46.88L1244.68 -46.88" stroke="#132e65" stroke-width="1.5"></path><path d="M1244.68 -46.88L1261.05 43.99" stroke="#132e65" stroke-width="1.5"></path><path d="M1244.68 -46.88L1388.13 -82.89" stroke="#132e65" stroke-width="1.5"></path><path d="M1244.68 -46.88L1420.43 88.05" stroke="#132e65" stroke-width="1.5"></path><path d="M1244.68 -46.88L1257.95 200.83" stroke="#132e65" stroke-width="1.5"></path><path d="M1261.05 43.99L1261.05 43.99" stroke="#132e65" stroke-width="1.5"></path><path d="M1261.05 43.99L1257.95 200.83" stroke="#132e65" stroke-width="1.5"></path><path d="M1261.05 43.99L1420.43 88.05" stroke="#132e65" stroke-width="1.5"></path><path d="M1257.95 200.83L1257.95 200.83" stroke="#132e65" stroke-width="1.5"></path><path d="M1257.95 200.83L1309.78 349.5" stroke="#132e65" stroke-width="1.5"></path><path d="M1257.95 200.83L1416.1 253.51" stroke="#132e65" stroke-width="1.5"></path><path d="M1309.78 349.5L1309.78 349.5" stroke="#132e65" stroke-width="1.5"></path><path d="M1309.78 349.5L1406.16 354.5" stroke="#132e65" stroke-width="1.5"></path><path d="M1309.78 349.5L1416.1 253.51" stroke="#132e65" stroke-width="1.5"></path><path d="M1304.63 493.62L1304.63 493.62" stroke="#132e65" stroke-width="1.5"></path><path d="M1304.63 493.62L1400.89 555.52" stroke="#132e65" stroke-width="1.5"></path><path d="M1304.63 493.62L1309.78 349.5" stroke="#132e65" stroke-width="1.5"></path><path d="M1304.63 493.62L1153.61 522.42" stroke="#132e65" stroke-width="1.5"></path><path d="M1250.36 693.74L1250.36 693.74" stroke="#132e65" stroke-width="1.5"></path><path d="M1250.36 693.74L1404.48 640.43" stroke="#132e65" stroke-width="1.5"></path><path d="M1388.13 -82.89L1388.13 -82.89" stroke="#132e65" stroke-width="1.5"></path><path d="M1388.13 -82.89L1548.05 -112.06" stroke="#132e65" stroke-width="1.5"></path><path d="M1388.13 -82.89L1420.43 88.05" stroke="#132e65" stroke-width="1.5"></path><path d="M1388.13 -82.89L1261.05 43.99" stroke="#132e65" stroke-width="1.5"></path><path d="M1388.13 -82.89L1570.6 55.6" stroke="#132e65" stroke-width="1.5"></path><path d="M1420.43 88.05L1420.43 88.05" stroke="#132e65" stroke-width="1.5"></path><path d="M1420.43 88.05L1570.6 55.6" stroke="#132e65" stroke-width="1.5"></path><path d="M1420.43 88.05L1416.1 253.51" stroke="#132e65" stroke-width="1.5"></path><path d="M1416.1 253.51L1416.1 253.51" stroke="#132e65" stroke-width="1.5"></path><path d="M1416.1 253.51L1406.16 354.5" stroke="#132e65" stroke-width="1.5"></path><path d="M1416.1 253.51L1557.26 194.92" stroke="#132e65" stroke-width="1.5"></path><path d="M1416.1 253.51L1557.52 402.17" stroke="#132e65" stroke-width="1.5"></path><path d="M1406.16 354.5L1406.16 354.5" stroke="#132e65" stroke-width="1.5"></path><path d="M1400.89 555.52L1400.89 555.52" stroke="#132e65" stroke-width="1.5"></path><path d="M1400.89 555.52L1404.48 640.43" stroke="#132e65" stroke-width="1.5"></path><path d="M1400.89 555.52L1587.62 522.04" stroke="#132e65" stroke-width="1.5"></path><path d="M1400.89 555.52L1569.23 654.42" stroke="#132e65" stroke-width="1.5"></path><path d="M1404.48 640.43L1404.48 640.43" stroke="#132e65" stroke-width="1.5"></path><path d="M1404.48 640.43L1569.23 654.42" stroke="#132e65" stroke-width="1.5"></path><path d="M1404.48 640.43L1304.63 493.62" stroke="#132e65" stroke-width="1.5"></path><path d="M1548.05 -112.06L1548.05 -112.06" stroke="#132e65" stroke-width="1.5"></path><path d="M1548.05 -112.06L1570.6 55.6" stroke="#132e65" stroke-width="1.5"></path><path d="M1548.05 -112.06L1420.43 88.05" stroke="#132e65" stroke-width="1.5"></path><path d="M1548.05 -112.06L1557.26 194.92" stroke="#132e65" stroke-width="1.5"></path><path d="M1548.05 -112.06L1244.68 -46.88" stroke="#132e65" stroke-width="1.5"></path><path d="M1570.6 55.6L1570.6 55.6" stroke="#132e65" stroke-width="1.5"></path><path d="M1570.6 55.6L1557.26 194.92" stroke="#132e65" stroke-width="1.5"></path><path d="M1557.26 194.92L1557.26 194.92" stroke="#132e65" stroke-width="1.5"></path><path d="M1557.26 194.92L1420.43 88.05" stroke="#132e65" stroke-width="1.5"></path><path d="M1557.52 402.17L1557.52 402.17" stroke="#132e65" stroke-width="1.5"></path><path d="M1557.52 402.17L1587.62 522.04" stroke="#132e65" stroke-width="1.5"></path><path d="M1557.52 402.17L1406.16 354.5" stroke="#132e65" stroke-width="1.5"></path><path d="M1587.62 522.04L1587.62 522.04" stroke="#132e65" stroke-width="1.5"></path><path d="M1587.62 522.04L1569.23 654.42" stroke="#132e65" stroke-width="1.5"></path><path d="M1587.62 522.04L1404.48 640.43" stroke="#132e65" stroke-width="1.5"></path><path d="M1587.62 522.04L1406.16 354.5" stroke="#132e65" stroke-width="1.5"></path><path d="M1587.62 522.04L1304.63 493.62" stroke="#132e65" stroke-width="1.5"></path><path d="M1569.23 654.42L1569.23 654.42" stroke="#132e65" stroke-width="1.5"></path><path d="M1569.23 654.42L1557.52 402.17" stroke="#132e65" stroke-width="1.5"></path><path d="M1569.23 654.42L1304.63 493.62" stroke="#132e65" stroke-width="1.5"></path><circle r="5" cx="-46.08" cy="495.47" fill="#132e65"></circle><circle r="5" cx="-95.54" cy="637.76" fill="#132e65"></circle><circle r="5" cx="96.7" cy="377.19" fill="#132e65"></circle><circle r="5" cx="94.18" cy="658.58" fill="#132e65"></circle><circle r="5" cx="252.21" cy="361.54" fill="#132e65"></circle><circle r="5" cx="257.27" cy="515.72" fill="#132e65"></circle><circle r="5" cx="196.05" cy="672.51" fill="#132e65"></circle><circle r="5" cx="384.03" cy="366.55" fill="#132e65"></circle><circle r="5" cx="366.45" cy="547.59" fill="#132e65"></circle><circle r="5" cx="359.03" cy="675.75" fill="#132e65"></circle><circle r="5" cx="505.05" cy="397.35" fill="#132e65"></circle><circle r="5" cx="558.83" cy="538.48" fill="#132e65"></circle><circle r="5" cx="512.02" cy="655.35" fill="#132e65"></circle><circle r="5" cx="648.41" cy="682.44" fill="#132e65"></circle><circle r="5" cx="824.51" cy="383.16" fill="#132e65"></circle><circle r="5" cx="860.25" cy="650.15" fill="#132e65"></circle><circle r="5" cx="996.07" cy="-109.37" fill="#132e65"></circle><circle r="5" cx="943.46" cy="56.24" fill="#132e65"></circle><circle r="5" cx="1001.69" cy="363.6" fill="#132e65"></circle><circle r="5" cx="996.72" cy="510.18" fill="#132e65"></circle><circle r="5" cx="981.28" cy="674.38" fill="#132e65"></circle><circle r="5" cx="1159.37" cy="-97.99" fill="#132e65"></circle><circle r="5" cx="1089.83" cy="249.8" fill="#132e65"></circle><circle r="5" cx="1092.14" cy="356.91" fill="#132e65"></circle><circle r="5" cx="1153.61" cy="522.42" fill="#132e65"></circle><circle r="5" cx="1132.74" cy="642.52" fill="#132e65"></circle><circle r="5" cx="1244.68" cy="-46.88" fill="#132e65"></circle><circle r="5" cx="1261.05" cy="43.99" fill="#132e65"></circle><circle r="5" cx="1257.95" cy="200.83" fill="#132e65"></circle><circle r="5" cx="1309.78" cy="349.5" fill="#132e65"></circle><circle r="5" cx="1304.63" cy="493.62" fill="#132e65"></circle><circle r="5" cx="1250.36" cy="693.74" fill="#132e65"></circle><circle r="5" cx="1388.13" cy="-82.89" fill="#132e65"></circle><circle r="5" cx="1420.43" cy="88.05" fill="#132e65"></circle><circle r="5" cx="1416.1" cy="253.51" fill="#132e65"></circle><circle r="5" cx="1406.16" cy="354.5" fill="#132e65"></circle><circle r="5" cx="1400.89" cy="555.52" fill="#132e65"></circle><circle r="5" cx="1404.48" cy="640.43" fill="#132e65"></circle><circle r="5" cx="1548.05" cy="-112.06" fill="#132e65"></circle><circle r="5" cx="1570.6" cy="55.6" fill="#132e65"></circle><circle r="5" cx="1557.26" cy="194.92" fill="#132e65"></circle><circle r="5" cx="1557.52" cy="402.17" fill="#132e65"></circle><circle r="5" cx="1587.62" cy="522.04" fill="#132e65"></circle><circle r="5" cx="1569.23" cy="654.42" fill="#132e65"></circle><path d="M-76.82 537.83L-76.82 537.83" stroke="hsl(228.5, 77.2%, 51.5%)" stroke-width="1.5"></path><path d="M-76.82 537.83L-55.95 660.53" stroke="hsl(228.5, 77.2%, 51.5%)" stroke-width="1.5"></path><path d="M-76.82 537.83L89.45 491.83" stroke="hsl(228.5, 77.2%, 51.5%)" stroke-width="1.5"></path><path d="M-76.82 537.83L77.94 712.45" stroke="hsl(228.5, 77.2%, 51.5%)" stroke-width="1.5"></path><path d="M-76.82 537.83L228.69 529.33" stroke="hsl(228.5, 77.2%, 51.5%)" stroke-width="1.5"></path><path d="M-76.82 537.83L340.31 551.01" stroke="hsl(228.5, 77.2%, 51.5%)" stroke-width="1.5"></path><path d="M-55.95 660.53L-55.95 660.53" stroke="hsl(228.5, 77.2%, 51.5%)" stroke-width="1.5"></path><path d="M-55.95 660.53L77.94 712.45" stroke="hsl(228.5, 77.2%, 51.5%)" stroke-width="1.5"></path><path d="M-55.95 660.53L89.45 491.83" stroke="hsl(228.5, 77.2%, 51.5%)" stroke-width="1.5"></path><path d="M-55.95 660.53L228.69 529.33" stroke="hsl(228.5, 77.2%, 51.5%)" stroke-width="1.5"></path><path d="M531.51 530.12L531.51 530.12" stroke="hsl(228.5, 77.2%, 51.5%)" stroke-width="1.5"></path><path d="M531.51 530.12L695.04 504.35" stroke="hsl(228.5, 77.2%, 51.5%)" stroke-width="1.5"></path><path d="M531.51 530.12L637.63 401.04" stroke="hsl(228.5, 77.2%, 51.5%)" stroke-width="1.5"></path><path d="M531.51 530.12L529.63 711.15" stroke="hsl(228.5, 77.2%, 51.5%)" stroke-width="1.5"></path><path d="M695.04 504.35L695.04 504.35" stroke="hsl(228.5, 77.2%, 51.5%)" stroke-width="1.5"></path><path d="M695.04 504.35L793.52 513.47" stroke="hsl(228.5, 77.2%, 51.5%)" stroke-width="1.5"></path><path d="M695.04 504.35L637.63 401.04" stroke="hsl(228.5, 77.2%, 51.5%)" stroke-width="1.5"></path><path d="M695.04 504.35L711.82 658.63" stroke="hsl(228.5, 77.2%, 51.5%)" stroke-width="1.5"></path><path d="M695.04 504.35L798.87 370.18" stroke="hsl(228.5, 77.2%, 51.5%)" stroke-width="1.5"></path><path d="M695.04 504.35L839.51 683.07" stroke="hsl(228.5, 77.2%, 51.5%)" stroke-width="1.5"></path><path d="M711.82 658.63L711.82 658.63" stroke="hsl(228.5, 77.2%, 51.5%)" stroke-width="1.5"></path><path d="M711.82 658.63L839.51 683.07" stroke="hsl(228.5, 77.2%, 51.5%)" stroke-width="1.5"></path><path d="M711.82 658.63L793.52 513.47" stroke="hsl(228.5, 77.2%, 51.5%)" stroke-width="1.5"></path><path d="M711.82 658.63L529.63 711.15" stroke="hsl(228.5, 77.2%, 51.5%)" stroke-width="1.5"></path><path d="M793.52 513.47L793.52 513.47" stroke="hsl(228.5, 77.2%, 51.5%)" stroke-width="1.5"></path><path d="M793.52 513.47L798.87 370.18" stroke="hsl(228.5, 77.2%, 51.5%)" stroke-width="1.5"></path><path d="M793.52 513.47L839.51 683.07" stroke="hsl(228.5, 77.2%, 51.5%)" stroke-width="1.5"></path><path d="M1150.22 698.68L1150.22 698.68" stroke="hsl(228.5, 77.2%, 51.5%)" stroke-width="1.5"></path><path d="M1150.22 698.68L1266.95 671.17" stroke="hsl(228.5, 77.2%, 51.5%)" stroke-width="1.5"></path><path d="M1150.22 698.68L1140.28 506.17" stroke="hsl(228.5, 77.2%, 51.5%)" stroke-width="1.5"></path><path d="M1150.22 698.68L1241.48 508.41" stroke="hsl(228.5, 77.2%, 51.5%)" stroke-width="1.5"></path><path d="M1150.22 698.68L991.58 547.29" stroke="hsl(228.5, 77.2%, 51.5%)" stroke-width="1.5"></path><path d="M1150.22 698.68L1438.86 678.56" stroke="hsl(228.5, 77.2%, 51.5%)" stroke-width="1.5"></path><path d="M1310.23 378.59L1310.23 378.59" stroke="hsl(228.5, 77.2%, 51.5%)" stroke-width="1.5"></path><path d="M1310.23 378.59L1241.48 508.41" stroke="hsl(228.5, 77.2%, 51.5%)" stroke-width="1.5"></path><path d="M1310.23 378.59L1388.37 508.51" stroke="hsl(228.5, 77.2%, 51.5%)" stroke-width="1.5"></path><path d="M1310.23 378.59L1134.24 384.15" stroke="hsl(228.5, 77.2%, 51.5%)" stroke-width="1.5"></path><path d="M1310.23 378.59L1244.38 194.88" stroke="hsl(228.5, 77.2%, 51.5%)" stroke-width="1.5"></path><path d="M1310.23 378.59L1144.78 249.11" stroke="hsl(228.5, 77.2%, 51.5%)" stroke-width="1.5"></path><path d="M89.45 491.83L89.45 491.83" stroke="hsl(228.5, 77.2%, 51.5%)" stroke-width="1.5"></path><path d="M89.45 491.83L228.69 529.33" stroke="hsl(228.5, 77.2%, 51.5%)" stroke-width="1.5"></path><path d="M89.45 491.83L77.94 712.45" stroke="hsl(228.5, 77.2%, 51.5%)" stroke-width="1.5"></path><path d="M89.45 491.83L340.31 551.01" stroke="hsl(228.5, 77.2%, 51.5%)" stroke-width="1.5"></path><path d="M77.94 712.45L77.94 712.45" stroke="hsl(228.5, 77.2%, 51.5%)" stroke-width="1.5"></path><path d="M228.69 529.33L228.69 529.33" stroke="hsl(228.5, 77.2%, 51.5%)" stroke-width="1.5"></path><path d="M228.69 529.33L340.31 551.01" stroke="hsl(228.5, 77.2%, 51.5%)" stroke-width="1.5"></path><path d="M228.69 529.33L337.82 693.3" stroke="hsl(228.5, 77.2%, 51.5%)" stroke-width="1.5"></path><path d="M228.69 529.33L77.94 712.45" stroke="hsl(228.5, 77.2%, 51.5%)" stroke-width="1.5"></path><path d="M228.69 529.33L531.51 530.12" stroke="hsl(228.5, 77.2%, 51.5%)" stroke-width="1.5"></path><path d="M340.31 551.01L340.31 551.01" stroke="hsl(228.5, 77.2%, 51.5%)" stroke-width="1.5"></path><path d="M340.31 551.01L337.82 693.3" stroke="hsl(228.5, 77.2%, 51.5%)" stroke-width="1.5"></path><path d="M340.31 551.01L531.51 530.12" stroke="hsl(228.5, 77.2%, 51.5%)" stroke-width="1.5"></path><path d="M340.31 551.01L529.63 711.15" stroke="hsl(228.5, 77.2%, 51.5%)" stroke-width="1.5"></path><path d="M337.82 693.3L337.82 693.3" stroke="hsl(228.5, 77.2%, 51.5%)" stroke-width="1.5"></path><path d="M337.82 693.3L529.63 711.15" stroke="hsl(228.5, 77.2%, 51.5%)" stroke-width="1.5"></path><path d="M337.82 693.3L531.51 530.12" stroke="hsl(228.5, 77.2%, 51.5%)" stroke-width="1.5"></path><path d="M529.63 711.15L529.63 711.15" stroke="hsl(228.5, 77.2%, 51.5%)" stroke-width="1.5"></path><path d="M637.63 401.04L637.63 401.04" stroke="hsl(228.5, 77.2%, 51.5%)" stroke-width="1.5"></path><path d="M637.63 401.04L798.87 370.18" stroke="hsl(228.5, 77.2%, 51.5%)" stroke-width="1.5"></path><path d="M798.87 370.18L798.87 370.18" stroke="hsl(228.5, 77.2%, 51.5%)" stroke-width="1.5"></path><path d="M839.51 683.07L839.51 683.07" stroke="hsl(228.5, 77.2%, 51.5%)" stroke-width="1.5"></path><path d="M839.51 683.07L991.58 547.29" stroke="hsl(228.5, 77.2%, 51.5%)" stroke-width="1.5"></path><path d="M839.51 683.07L969.41 408.01" stroke="hsl(228.5, 77.2%, 51.5%)" stroke-width="1.5"></path><path d="M969.41 408.01L969.41 408.01" stroke="hsl(228.5, 77.2%, 51.5%)" stroke-width="1.5"></path><path d="M969.41 408.01L991.58 547.29" stroke="hsl(228.5, 77.2%, 51.5%)" stroke-width="1.5"></path><path d="M969.41 408.01L1134.24 384.15" stroke="hsl(228.5, 77.2%, 51.5%)" stroke-width="1.5"></path><path d="M991.58 547.29L991.58 547.29" stroke="hsl(228.5, 77.2%, 51.5%)" stroke-width="1.5"></path><path d="M991.58 547.29L1140.28 506.17" stroke="hsl(228.5, 77.2%, 51.5%)" stroke-width="1.5"></path><path d="M991.58 547.29L793.52 513.47" stroke="hsl(228.5, 77.2%, 51.5%)" stroke-width="1.5"></path><path d="M991.58 547.29L1134.24 384.15" stroke="hsl(228.5, 77.2%, 51.5%)" stroke-width="1.5"></path><path d="M1144.78 249.11L1144.78 249.11" stroke="hsl(228.5, 77.2%, 51.5%)" stroke-width="1.5"></path><path d="M1144.78 249.11L1244.38 194.88" stroke="hsl(228.5, 77.2%, 51.5%)" stroke-width="1.5"></path><path d="M1144.78 249.11L1134.24 384.15" stroke="hsl(228.5, 77.2%, 51.5%)" stroke-width="1.5"></path><path d="M1144.78 249.11L1256.79 99.07" stroke="hsl(228.5, 77.2%, 51.5%)" stroke-width="1.5"></path><path d="M1134.24 384.15L1134.24 384.15" stroke="hsl(228.5, 77.2%, 51.5%)" stroke-width="1.5"></path><path d="M1134.24 384.15L1140.28 506.17" stroke="hsl(228.5, 77.2%, 51.5%)" stroke-width="1.5"></path><path d="M1140.28 506.17L1140.28 506.17" stroke="hsl(228.5, 77.2%, 51.5%)" stroke-width="1.5"></path><path d="M1140.28 506.17L1241.48 508.41" stroke="hsl(228.5, 77.2%, 51.5%)" stroke-width="1.5"></path><path d="M1242.31 -98.03L1242.31 -98.03" stroke="hsl(228.5, 77.2%, 51.5%)" stroke-width="1.5"></path><path d="M1242.31 -98.03L1422.33 -106.89" stroke="hsl(228.5, 77.2%, 51.5%)" stroke-width="1.5"></path><path d="M1242.31 -98.03L1256.79 99.07" stroke="hsl(228.5, 77.2%, 51.5%)" stroke-width="1.5"></path><path d="M1242.31 -98.03L1433.6 52.12" stroke="hsl(228.5, 77.2%, 51.5%)" stroke-width="1.5"></path><path d="M1242.31 -98.03L1244.38 194.88" stroke="hsl(228.5, 77.2%, 51.5%)" stroke-width="1.5"></path><path d="M1242.31 -98.03L1437.4 188.35" stroke="hsl(228.5, 77.2%, 51.5%)" stroke-width="1.5"></path><path d="M1256.79 99.07L1256.79 99.07" stroke="hsl(228.5, 77.2%, 51.5%)" stroke-width="1.5"></path><path d="M1256.79 99.07L1244.38 194.88" stroke="hsl(228.5, 77.2%, 51.5%)" stroke-width="1.5"></path><path d="M1256.79 99.07L1433.6 52.12" stroke="hsl(228.5, 77.2%, 51.5%)" stroke-width="1.5"></path><path d="M1256.79 99.07L1437.4 188.35" stroke="hsl(228.5, 77.2%, 51.5%)" stroke-width="1.5"></path><path d="M1244.38 194.88L1244.38 194.88" stroke="hsl(228.5, 77.2%, 51.5%)" stroke-width="1.5"></path><path d="M1244.38 194.88L1437.4 188.35" stroke="hsl(228.5, 77.2%, 51.5%)" stroke-width="1.5"></path><path d="M1244.38 194.88L1134.24 384.15" stroke="hsl(228.5, 77.2%, 51.5%)" stroke-width="1.5"></path><path d="M1244.38 194.88L1433.6 52.12" stroke="hsl(228.5, 77.2%, 51.5%)" stroke-width="1.5"></path><path d="M1241.48 508.41L1241.48 508.41" stroke="hsl(228.5, 77.2%, 51.5%)" stroke-width="1.5"></path><path d="M1241.48 508.41L1388.37 508.51" stroke="hsl(228.5, 77.2%, 51.5%)" stroke-width="1.5"></path><path d="M1241.48 508.41L1134.24 384.15" stroke="hsl(228.5, 77.2%, 51.5%)" stroke-width="1.5"></path><path d="M1241.48 508.41L1266.95 671.17" stroke="hsl(228.5, 77.2%, 51.5%)" stroke-width="1.5"></path><path d="M1266.95 671.17L1266.95 671.17" stroke="hsl(228.5, 77.2%, 51.5%)" stroke-width="1.5"></path><path d="M1266.95 671.17L1438.86 678.56" stroke="hsl(228.5, 77.2%, 51.5%)" stroke-width="1.5"></path><path d="M1266.95 671.17L1388.37 508.51" stroke="hsl(228.5, 77.2%, 51.5%)" stroke-width="1.5"></path><path d="M1266.95 671.17L1140.28 506.17" stroke="hsl(228.5, 77.2%, 51.5%)" stroke-width="1.5"></path><path d="M1266.95 671.17L1547.41 650.61" stroke="hsl(228.5, 77.2%, 51.5%)" stroke-width="1.5"></path><path d="M1422.33 -106.89L1422.33 -106.89" stroke="hsl(228.5, 77.2%, 51.5%)" stroke-width="1.5"></path><path d="M1422.33 -106.89L1433.6 52.12" stroke="hsl(228.5, 77.2%, 51.5%)" stroke-width="1.5"></path><path d="M1422.33 -106.89L1575.06 79.44" stroke="hsl(228.5, 77.2%, 51.5%)" stroke-width="1.5"></path><path d="M1422.33 -106.89L1256.79 99.07" stroke="hsl(228.5, 77.2%, 51.5%)" stroke-width="1.5"></path><path d="M1422.33 -106.89L1437.4 188.35" stroke="hsl(228.5, 77.2%, 51.5%)" stroke-width="1.5"></path><path d="M1433.6 52.12L1433.6 52.12" stroke="hsl(228.5, 77.2%, 51.5%)" stroke-width="1.5"></path><path d="M1433.6 52.12L1437.4 188.35" stroke="hsl(228.5, 77.2%, 51.5%)" stroke-width="1.5"></path><path d="M1433.6 52.12L1575.06 79.44" stroke="hsl(228.5, 77.2%, 51.5%)" stroke-width="1.5"></path><path d="M1437.4 188.35L1437.4 188.35" stroke="hsl(228.5, 77.2%, 51.5%)" stroke-width="1.5"></path><path d="M1437.4 188.35L1597.56 216.87" stroke="hsl(228.5, 77.2%, 51.5%)" stroke-width="1.5"></path><path d="M1388.37 508.51L1388.37 508.51" stroke="hsl(228.5, 77.2%, 51.5%)" stroke-width="1.5"></path><path d="M1438.86 678.56L1438.86 678.56" stroke="hsl(228.5, 77.2%, 51.5%)" stroke-width="1.5"></path><path d="M1438.86 678.56L1547.41 650.61" stroke="hsl(228.5, 77.2%, 51.5%)" stroke-width="1.5"></path><path d="M1438.86 678.56L1388.37 508.51" stroke="hsl(228.5, 77.2%, 51.5%)" stroke-width="1.5"></path><path d="M1438.86 678.56L1554.51 535.97" stroke="hsl(228.5, 77.2%, 51.5%)" stroke-width="1.5"></path><path d="M1575.06 79.44L1575.06 79.44" stroke="hsl(228.5, 77.2%, 51.5%)" stroke-width="1.5"></path><path d="M1575.06 79.44L1597.56 216.87" stroke="hsl(228.5, 77.2%, 51.5%)" stroke-width="1.5"></path><path d="M1575.06 79.44L1437.4 188.35" stroke="hsl(228.5, 77.2%, 51.5%)" stroke-width="1.5"></path><path d="M1597.56 216.87L1597.56 216.87" stroke="hsl(228.5, 77.2%, 51.5%)" stroke-width="1.5"></path><path d="M1554.51 535.97L1554.51 535.97" stroke="hsl(228.5, 77.2%, 51.5%)" stroke-width="1.5"></path><path d="M1554.51 535.97L1547.41 650.61" stroke="hsl(228.5, 77.2%, 51.5%)" stroke-width="1.5"></path><path d="M1554.51 535.97L1388.37 508.51" stroke="hsl(228.5, 77.2%, 51.5%)" stroke-width="1.5"></path><path d="M1547.41 650.61L1547.41 650.61" stroke="hsl(228.5, 77.2%, 51.5%)" stroke-width="1.5"></path><path d="M1547.41 650.61L1388.37 508.51" stroke="hsl(228.5, 77.2%, 51.5%)" stroke-width="1.5"></path><path d="M1547.41 650.61L1241.48 508.41" stroke="hsl(228.5, 77.2%, 51.5%)" stroke-width="1.5"></path><path d="M1547.41 650.61L1310.23 378.59" stroke="hsl(228.5, 77.2%, 51.5%)" stroke-width="1.5"></path><circle r="25" cx="-76.82" cy="537.83" fill="url(#SvgjsRadialGradient1003)"></circle><circle r="25" cx="-55.95" cy="660.53" fill="url(#SvgjsRadialGradient1003)"></circle><circle r="25" cx="531.51" cy="530.12" fill="url(#SvgjsRadialGradient1003)"></circle><circle r="25" cx="695.04" cy="504.35" fill="url(#SvgjsRadialGradient1003)"></circle><circle r="25" cx="711.82" cy="658.63" fill="url(#SvgjsRadialGradient1003)"></circle><circle r="25" cx="793.52" cy="513.47" fill="url(#SvgjsRadialGradient1003)"></circle><circle r="25" cx="1150.22" cy="698.68" fill="url(#SvgjsRadialGradient1003)"></circle><circle r="25" cx="1310.23" cy="378.59" fill="url(#SvgjsRadialGradient1003)"></circle><circle r="5" cx="89.45" cy="491.83" fill="#8b9ad9"></circle><circle r="5" cx="77.94" cy="712.45" fill="#8b9ad9"></circle><circle r="5" cx="228.69" cy="529.33" fill="#8b9ad9"></circle><circle r="5" cx="340.31" cy="551.01" fill="#8b9ad9"></circle><circle r="5" cx="337.82" cy="693.3" fill="#8b9ad9"></circle><circle r="5" cx="529.63" cy="711.15" fill="#8b9ad9"></circle><circle r="5" cx="637.63" cy="401.04" fill="#8b9ad9"></circle><circle r="5" cx="798.87" cy="370.18" fill="#8b9ad9"></circle><circle r="5" cx="839.51" cy="683.07" fill="#8b9ad9"></circle><circle r="5" cx="969.41" cy="408.01" fill="#8b9ad9"></circle><circle r="5" cx="991.58" cy="547.29" fill="#8b9ad9"></circle><circle r="5" cx="1144.78" cy="249.11" fill="#8b9ad9"></circle><circle r="5" cx="1134.24" cy="384.15" fill="#8b9ad9"></circle><circle r="5" cx="1140.28" cy="506.17" fill="#8b9ad9"></circle><circle r="5" cx="1242.31" cy="-98.03" fill="#8b9ad9"></circle><circle r="5" cx="1256.79" cy="99.07" fill="#8b9ad9"></circle><circle r="5" cx="1244.38" cy="194.88" fill="#8b9ad9"></circle><circle r="5" cx="1241.48" cy="508.41" fill="#8b9ad9"></circle><circle r="5" cx="1266.95" cy="671.17" fill="#8b9ad9"></circle><circle r="5" cx="1422.33" cy="-106.89" fill="#8b9ad9"></circle><circle r="5" cx="1433.6" cy="52.12" fill="#8b9ad9"></circle><circle r="5" cx="1437.4" cy="188.35" fill="#8b9ad9"></circle><circle r="5" cx="1388.37" cy="508.51" fill="#8b9ad9"></circle><circle r="5" cx="1438.86" cy="678.56" fill="#8b9ad9"></circle><circle r="5" cx="1575.06" cy="79.44" fill="#8b9ad9"></circle><circle r="5" cx="1597.56" cy="216.87" fill="#8b9ad9"></circle><circle r="5" cx="1554.51" cy="535.97" fill="#8b9ad9"></circle><circle r="5" cx="1547.41" cy="650.61" fill="#8b9ad9"></circle></g><defs><mask id="SvgjsMask1002"><rect width="1440" height="560" fill="#ffffff"></rect></mask><radialGradient id="SvgjsRadialGradient1003"><stop stop-color="#ffffff" offset="0.1"></stop><stop stop-color="#1735b3" offset="0.2"></stop><stop stop-color="rgba(23, 53, 179, 0)" offset="1"></stop></radialGradient></defs></svg>